<svg width="856" height="993" viewBox="0 0 856 993" fill="none" xmlns="http://www.w3.org/2000/svg">
<path fill-rule="evenodd" clip-rule="evenodd" d="M552.206 280.606H530.107V264.417H508.008V242.832H530.107V226.643H508.008V205.058H530.107H552.206H574.305V226.643H552.206V242.832H574.305V264.417H552.206V280.606ZM469.334 172.68H447.235V151.095H436.186V172.68H414.087V151.095H397.512V129.51H414.087V107.925H436.186V129.51H447.235V107.925H469.334V129.51H485.909V107.925H508.008V129.51V151.095V172.68H485.909V151.095H469.334V172.68ZM574.305 172.68V194.265H508.008V172.68H574.305ZM574.305 107.925H596.404V129.51H612.978V107.925H635.077V129.51H646.127V107.925H668.226V129.51H684.8V151.095H668.226V172.68H646.127V151.095H635.077V172.68H612.978V151.095H596.404V172.68H574.305V151.095V129.51V107.925ZM574.305 107.925V86.3402H508.008V107.925H574.305ZM530.107 0H552.206V16.1888H574.305V37.7738H552.206V53.9626H574.305V75.5476H552.206H530.107H508.008V53.9626H530.107V37.7738H508.008V16.1888H530.107V0ZM552.206 129.51H530.107V151.095H552.206V129.51ZM397.512 0H419.611V16.1888H474.859V37.7738H436.186V75.5476H414.087V21.585H397.512V0ZM662.701 0H684.8V21.585H668.226V75.5476H646.127V37.7738H607.453V16.1888H662.701V0ZM397.512 280.606H419.611V264.417H474.859V242.832H436.186V205.058H414.087V259.02H397.512V280.606ZM662.701 280.606H684.8V259.02H668.226V205.058H646.127V242.832H607.453V264.417H662.701V280.606Z" fill="black"/>
<path fill-rule="evenodd" clip-rule="evenodd" d="M718.805 595.571H695.353V635.657H654.312V675.744H613.271V698.651H654.312V738.737H695.353V635.657H718.805V738.737H759.847V698.651H800.888V675.744H759.847V635.657H718.805V595.571ZM718.805 744.464H695.353V778.824H718.805V744.464ZM630.86 595.571H654.312V618.477H630.86V595.571ZM630.86 755.917H654.312V778.824H630.86V755.917ZM783.299 595.571H759.847V618.477H783.299V595.571ZM783.299 755.917H759.847V778.824H783.299V755.917Z" fill="black"/>
<path fill-rule="evenodd" clip-rule="evenodd" d="M120.192 627.64L107.314 634.702V654.12L120.192 661.182L107.314 668.243V687.662L120.192 694.724L107.314 701.785V721.204L120.192 728.265L133.069 721.204V701.785L120.192 694.724L133.069 687.662V668.243L120.192 661.182L133.069 654.12V634.702L120.192 627.64ZM213.273 757.614L206.043 745.036L213.273 732.458H233.154L240.384 745.036L233.154 757.614H213.273ZM171.703 745.036L178.932 757.614H198.813L206.043 745.036L198.813 732.458H178.932L171.703 745.036ZM164.473 732.458L171.703 745.036L164.473 757.614H144.592L137.362 745.036L144.592 732.458H164.473ZM68.681 745.036L75.9106 757.614H95.7919L103.022 745.036L95.7919 732.458H75.9106L68.681 745.036ZM34.3405 745.036L27.1109 732.458H7.22958L0 745.036L7.22958 757.614H27.1109L34.3405 745.036ZM34.3405 745.036L41.5701 732.458H61.4514L68.681 745.036L61.4514 757.614H41.5701L34.3405 745.036ZM107.314 835.952L120.192 828.891L133.069 835.952V855.371L120.192 862.433L107.314 855.371V835.952ZM120.192 795.349L107.314 802.41V821.829L120.192 828.891L133.069 821.829V802.41L120.192 795.349ZM133.069 788.288L120.192 795.349L107.314 788.288V768.869L120.192 761.807L133.069 768.869V788.288ZM120.192 753.422C124.933 753.422 128.777 749.667 128.777 745.036C128.777 740.405 124.933 736.651 120.192 736.651C115.45 736.651 111.607 740.405 111.607 745.036C111.607 749.667 115.45 753.422 120.192 753.422ZM36.2911 662.452L39.9335 658.894L47.2182 666.01L54.5029 658.894L58.1453 662.452L50.8605 669.567L58.1453 676.683L54.5029 680.24L47.2182 673.125L39.9335 680.24L36.2911 676.683L43.5758 669.567L36.2911 662.452ZM177.946 662.452L181.588 658.894L188.873 666.01L196.157 658.894L199.8 662.452L192.515 669.567L199.8 676.683L196.157 680.24L188.873 673.125L181.588 680.24L177.946 676.683L185.23 669.567L177.946 662.452ZM177.946 809.197L181.588 805.64L188.873 812.755L196.157 805.64L199.8 809.197L192.515 816.313L199.8 823.428L196.157 826.986L188.873 819.87L181.588 826.986L177.946 823.428L185.23 816.313L177.946 809.197ZM36.2911 809.197L39.9335 805.64L47.2182 812.755L54.5029 805.64L58.1453 809.197L50.8605 816.313L58.1453 823.428L54.5029 826.986L47.2182 819.87L39.9335 826.986L36.2911 823.428L43.5758 816.313L36.2911 809.197Z" fill="black"/>
<rect x="357.644" y="483.329" width="28.1425" height="27.4879" fill="black"/>
<rect x="827.858" y="71.0104" width="18.7616" height="18.3253" fill="black"/>
<rect x="827.858" y="965.512" width="28.1425" height="27.4879" fill="black"/>
<rect x="397.512" y="965.512" width="18.7616" height="18.3253" fill="black"/>
</svg>
