<svg width="1407" height="1255" viewBox="0 0 1407 1255" fill="none" xmlns="http://www.w3.org/2000/svg">
<path fill-rule="evenodd" clip-rule="evenodd" d="M748.896 537.463C759.773 528.846 775.227 528.846 786.104 537.463C793.168 543.061 797.28 551.535 797.28 560.496V584.772C797.28 622.18 827.897 652.504 865.665 652.504H884.22C893.267 652.504 901.823 656.577 907.474 663.574C916.175 674.347 916.175 689.653 907.474 700.426C901.823 707.423 893.267 711.496 884.22 711.496H865.665C827.897 711.496 797.28 741.82 797.28 779.228V803.504C797.28 812.465 793.168 820.939 786.104 826.537C775.227 835.154 759.773 835.154 748.896 826.537C741.832 820.939 737.72 812.465 737.72 803.504V779.228C737.72 741.82 707.103 711.496 669.335 711.496H650.78C641.733 711.496 633.177 707.423 627.526 700.426C618.825 689.653 618.825 674.347 627.526 663.574C633.177 656.577 641.733 652.504 650.78 652.504H669.335C707.103 652.504 737.72 622.18 737.72 584.772V560.496C737.72 551.535 741.832 543.061 748.896 537.463ZM767.5 729.193C793.815 729.193 815.148 708.064 815.148 682C815.148 655.936 793.815 634.807 767.5 634.807C741.185 634.807 719.852 655.936 719.852 682C719.852 708.064 741.185 729.193 767.5 729.193ZM678.159 575.815C678.159 582.331 672.826 587.613 666.247 587.613C659.668 587.613 654.335 582.331 654.335 575.815C654.335 569.299 659.668 564.017 666.247 564.017C672.826 564.017 678.159 569.299 678.159 575.815ZM666.247 794.084C672.826 794.084 678.159 788.802 678.159 782.286C678.159 775.77 672.826 770.487 666.247 770.487C659.668 770.487 654.335 775.77 654.335 782.286C654.335 788.802 659.668 794.084 666.247 794.084ZM874.709 575.815C874.709 582.331 869.376 587.613 862.797 587.613C856.218 587.613 850.885 582.331 850.885 575.815C850.885 569.299 856.218 564.017 862.797 564.017C869.376 564.017 874.709 569.299 874.709 575.815ZM862.796 794.084C869.375 794.084 874.709 788.802 874.709 782.286C874.709 775.77 869.375 770.487 862.796 770.487C856.218 770.487 850.884 775.77 850.884 782.286C850.884 788.802 856.218 794.084 862.796 794.084Z" fill="black"/>
<path fill-rule="evenodd" clip-rule="evenodd" d="M1226 830.183H1212.83V820.538H1199.67V807.678H1212.83V798.032H1199.67V785.172H1212.83H1226H1239.17V798.032H1226V807.678H1239.17V820.538H1226V830.183ZM1176.63 765.882H1163.46V753.022H1156.88V765.882H1143.71V753.022H1133.84V740.161H1143.71V727.301H1156.88V740.161H1163.46V727.301H1176.63V740.161H1186.5V727.301H1199.67V740.161V753.022V765.882H1186.5V753.022H1176.63V765.882ZM1239.17 765.882V778.742H1199.67V765.882H1239.17ZM1239.17 727.301H1252.33V740.161H1262.21V727.301H1275.38V740.161H1281.96V727.301H1295.13V740.161H1305V753.022H1295.13V765.882H1281.96V753.022H1275.38V765.882H1262.21V753.022H1252.33V765.882H1239.17V753.022V740.161V727.301ZM1239.17 727.301V714.441H1199.67V727.301H1239.17ZM1212.83 663H1226V672.645H1239.17V685.505H1226V695.151H1239.17V708.011H1226H1212.83H1199.67V695.151H1212.83V685.505H1199.67V672.645H1212.83V663ZM1226 740.161H1212.83V753.022H1226V740.161ZM1133.84 663H1147V672.645H1179.92V685.505H1156.88V708.011H1143.71V675.86H1133.84V663ZM1291.83 663H1305V675.86H1295.13V708.011H1281.96V685.505H1258.92V672.645H1291.83V663ZM1133.84 830.183H1147V820.538H1179.92V807.678H1156.88V785.172H1143.71V817.323H1133.84V830.183ZM1291.83 830.183H1305V817.323H1295.13V785.172H1281.96V807.678H1258.92V820.538H1291.83V830.183Z" fill="black"/>
<path fill-rule="evenodd" clip-rule="evenodd" d="M1325.26 1017.84H1311.29V1041.72H1286.84V1065.6H1262.38V1079.25H1286.84V1103.14H1311.29V1041.72H1325.26V1103.14H1349.71V1079.25H1374.16V1065.6H1349.71V1041.72H1325.26V1017.84ZM1325.26 1106.55H1311.29V1127.02H1325.26V1106.55ZM1272.86 1017.84H1286.84V1031.49H1272.86V1017.84ZM1272.86 1113.37H1286.84V1127.02H1272.86V1113.37ZM1363.68 1017.84H1349.71V1031.49H1363.68V1017.84ZM1363.68 1113.37H1349.71V1127.02H1363.68V1113.37Z" fill="black"/>
<path fill-rule="evenodd" clip-rule="evenodd" d="M968.61 1036.94L960.937 1041.15V1052.72L968.61 1056.93L960.937 1061.14V1072.71L968.61 1076.91L960.937 1081.12V1092.69L968.61 1096.9L976.282 1092.69V1081.12L968.61 1076.91L976.282 1072.71V1061.14L968.61 1056.93L976.282 1052.72V1041.15L968.61 1036.94ZM1024.07 1114.38L1019.76 1106.89L1024.07 1099.39H1035.91L1040.22 1106.89L1035.91 1114.38H1024.07ZM999.299 1106.89L1003.61 1114.38H1015.45L1019.76 1106.89L1015.45 1099.39H1003.61L999.299 1106.89ZM994.992 1099.39L999.299 1106.89L994.992 1114.38H983.147L978.84 1106.89L983.147 1099.39H994.992ZM937.92 1106.89L942.227 1114.38H954.072L958.38 1106.89L954.072 1099.39H942.227L937.92 1106.89ZM917.46 1106.89L913.153 1099.39H901.307L897 1106.89L901.307 1114.38H913.153L917.46 1106.89ZM917.46 1106.89L921.767 1099.39H933.612L937.92 1106.89L933.612 1114.38H921.767L917.46 1106.89ZM960.937 1161.06L968.61 1156.85L976.282 1161.06V1172.63L968.61 1176.83L960.937 1172.63V1161.06ZM968.61 1136.86L960.937 1141.07V1152.64L968.61 1156.85L976.282 1152.64V1141.07L968.61 1136.86ZM976.282 1132.66L968.61 1136.86L960.937 1132.66V1121.09L968.61 1116.88L976.282 1121.09V1132.66ZM968.61 1111.88C971.435 1111.88 973.725 1109.65 973.725 1106.89C973.725 1104.13 971.435 1101.89 968.61 1101.89C965.785 1101.89 963.495 1104.13 963.495 1106.89C963.495 1109.65 965.785 1111.88 968.61 1111.88ZM918.622 1057.69L920.792 1055.57L925.132 1059.8L929.473 1055.57L931.643 1057.69L927.302 1061.92L931.643 1066.16L929.473 1068.28L925.132 1064.04L920.792 1068.28L918.622 1066.16L922.962 1061.92L918.622 1057.69ZM1003.02 1057.69L1005.19 1055.57L1009.53 1059.8L1013.87 1055.57L1016.04 1057.69L1011.7 1061.92L1016.04 1066.16L1013.87 1068.28L1009.53 1064.04L1005.19 1068.28L1003.02 1066.16L1007.36 1061.92L1003.02 1057.69ZM1003.02 1145.12L1005.19 1143L1009.53 1147.23L1013.87 1143L1016.04 1145.12L1011.7 1149.35L1016.04 1153.59L1013.87 1155.71L1009.53 1151.47L1005.19 1155.71L1003.02 1153.59L1007.36 1149.35L1003.02 1145.12ZM918.622 1145.12L920.792 1143L925.132 1147.23L929.473 1143L931.643 1145.12L927.302 1149.35L931.643 1153.59L929.473 1155.71L925.132 1151.47L920.792 1155.71L918.622 1153.59L922.962 1149.35L918.622 1145.12Z" fill="black"/>
<rect x="1110.08" y="950.965" width="16.7671" height="16.3771" fill="black"/>
<rect x="1390.23" y="705.308" width="11.1781" height="10.9181" fill="black"/>
<rect x="1390.23" y="1238.25" width="16.7671" height="16.3771" fill="black"/>
<rect x="1133.84" y="1238.25" width="11.1781" height="10.9181" fill="black"/>
<path fill-rule="evenodd" clip-rule="evenodd" d="M370.241 716.198L377.556 696.876L344.528 684.372L357.329 650.558L324.301 638.055L337.102 604.24L318.228 597.095L305.427 630.91L272.399 618.407L259.598 652.221L344.528 684.372L337.213 703.695L252.284 671.544L239.483 705.358L272.511 717.862L259.71 751.676L278.583 758.821L291.384 725.006L324.412 737.509L337.213 703.695L370.241 716.198ZM247.565 669.758L254.88 650.435L226.57 639.718L219.256 659.041L247.565 669.758ZM397.671 643.738L390.357 663.061L371.483 655.916L378.798 636.594L397.671 643.738ZM265.559 593.726L258.244 613.048L239.371 605.903L246.686 586.581L265.559 593.726ZM350.125 769.335L357.44 750.013L338.567 742.868L331.252 762.191L350.125 769.335ZM218.013 719.322L225.328 700L206.455 692.855L199.14 712.178L218.013 719.322Z" fill="black"/>
<path fill-rule="evenodd" clip-rule="evenodd" d="M530.53 212.986L528.728 200.174L512.729 194.117L502.894 202.524L501.093 189.712L485.093 183.655L475.258 192.063L473.457 179.25L457.457 173.193L447.623 181.601L449.424 194.413L465.424 200.47L475.258 192.063L477.06 204.875L493.059 210.932L502.894 202.524L504.695 215.337L520.695 221.394L530.53 212.986ZM394.409 249.138L407.027 247.104L415.136 256.984L408.935 273.365L396.316 275.398L388.208 265.518L394.409 249.138ZM417.738 218.81L405.12 220.844L398.919 237.224L407.027 247.104L419.646 245.071L425.847 228.69L417.738 218.81ZM430.357 216.777L417.738 218.81L409.63 208.931L415.831 192.55L428.449 190.517L436.558 200.396L430.357 216.777ZM449.871 133.929L437.253 135.962L431.052 152.343L439.16 162.223L451.779 160.189L457.98 143.809L449.871 133.929ZM460.582 105.635L473.201 103.602L479.402 87.2212L471.293 77.3414L458.675 79.3748L452.474 95.7554L460.582 105.635ZM460.582 105.635L468.691 115.515L462.49 131.896L449.871 133.929L441.763 124.049L447.964 107.669L460.582 105.635ZM362.914 137.402L364.716 150.215L354.881 158.623L338.881 152.566L337.08 139.753L346.915 131.345L362.914 137.402ZM392.351 160.677L390.55 147.864L374.55 141.807L364.716 150.215L366.517 163.028L382.517 169.085L392.351 160.677ZM394.153 173.49L392.351 160.677L402.186 152.269L418.186 158.326L419.987 171.139L410.152 179.546L394.153 173.49ZM426.896 173.754C425.417 177.661 427.311 181.999 431.127 183.443C434.943 184.888 439.235 182.892 440.714 178.985C442.193 175.079 440.298 170.741 436.483 169.296C432.667 167.852 428.375 169.848 426.896 173.754ZM528.017 133.001L529.812 137.112L521.677 140.894L525.268 149.116L521.2 151.007L517.61 142.786L509.475 146.568L507.68 142.458L515.815 138.675L512.225 130.454L516.292 128.562L519.882 136.784L528.017 133.001ZM483.834 249.713L485.629 253.823L477.494 257.606L481.085 265.828L477.017 267.719L473.427 259.498L465.292 263.28L463.497 259.17L471.632 255.387L468.042 247.166L472.109 245.274L475.699 253.496L483.834 249.713ZM362.928 203.942L364.723 208.053L356.588 211.835L360.178 220.057L356.111 221.948L352.521 213.727L344.386 217.51L342.591 213.399L350.726 209.616L347.135 201.395L351.203 199.504L354.793 207.725L362.928 203.942ZM407.111 87.2302L408.906 91.3408L400.771 95.1236L404.361 103.345L400.294 105.236L396.704 97.0149L388.569 100.798L386.774 96.687L394.909 92.9043L391.318 84.6829L395.386 82.7916L398.976 91.0129L407.111 87.2302Z" fill="black"/>
<rect x="575.368" y="453.639" width="24.793" height="24.2163" transform="rotate(110.735 575.368 453.639)" fill="black"/>
<rect x="768.422" y="969.662" width="16.5287" height="16.1442" transform="rotate(110.735 768.422 969.662)" fill="black"/>
<rect x="31.4255" y="690.661" width="24.793" height="24.2163" transform="rotate(110.735 31.4255 690.661)" fill="black"/>
<rect x="165.653" y="336.092" width="16.5287" height="16.1442" transform="rotate(110.735 165.653 336.092)" fill="black"/>
</svg>
