<svg width="1922" height="2078" viewBox="0 0 1922 2078" fill="none" xmlns="http://www.w3.org/2000/svg">
<path fill-rule="evenodd" clip-rule="evenodd" d="M860.14 782.764C871.645 774.322 887.526 774.911 898.374 784.181C905.42 790.202 909.323 799.067 908.982 808.275L908.057 833.222C906.632 871.662 936.939 903.991 975.75 905.429L994.817 906.136C1004.11 906.481 1012.75 910.992 1018.29 918.398C1026.82 929.799 1026.24 945.529 1016.89 956.267C1010.81 963.242 1001.87 967.101 992.57 966.757L973.503 966.05C934.692 964.611 902.074 994.607 900.649 1033.05L899.725 1057.99C899.383 1067.2 894.834 1075.75 887.362 1081.24C875.857 1089.68 859.976 1089.09 849.127 1079.82C842.081 1073.8 838.178 1064.93 838.519 1055.72L839.444 1030.78C840.869 992.338 810.562 960.009 771.751 958.571L752.684 957.864C743.388 957.519 734.751 953.008 729.21 945.602C720.679 934.201 721.262 918.471 730.613 907.733C736.688 900.758 745.635 896.899 754.932 897.243L773.999 897.95C812.809 899.389 845.427 869.393 846.852 830.953L847.777 806.006C848.118 796.798 852.667 788.247 860.14 782.764ZM871.953 980.496C898.995 981.499 921.722 960.599 922.715 933.815C923.708 907.031 902.591 884.506 875.549 883.503C848.507 882.501 825.78 903.401 824.787 930.185C823.794 956.968 844.911 979.494 871.953 980.496ZM785.989 819.48C785.74 826.175 780.059 831.4 773.298 831.15C766.538 830.899 761.258 825.268 761.506 818.572C761.755 811.876 767.436 806.651 774.197 806.902C780.957 807.152 786.237 812.784 785.989 819.48ZM765.432 1043.32C772.193 1043.57 777.875 1038.35 778.123 1031.65C778.371 1024.96 773.092 1019.32 766.331 1019.07C759.571 1018.82 753.889 1024.05 753.641 1030.74C753.393 1037.44 758.672 1043.07 765.432 1043.32ZM987.965 826.967C987.717 833.663 982.035 838.888 975.275 838.637C968.514 838.387 963.235 832.756 963.483 826.06C963.731 819.364 969.413 814.139 976.174 814.389C982.934 814.64 988.214 820.271 987.965 826.967ZM967.409 1050.81C974.169 1051.06 979.851 1045.83 980.099 1039.14C980.347 1032.44 975.068 1026.81 968.308 1026.56C961.547 1026.31 955.865 1031.54 955.617 1038.23C955.369 1044.93 960.648 1050.56 967.409 1050.81Z" fill="black"/>
<path fill-rule="evenodd" clip-rule="evenodd" d="M1521.34 1526.52L1530.74 1516.77L1537.88 1523.66L1547.28 1513.92L1556.79 1523.1L1547.39 1532.84L1554.53 1539.73L1563.93 1529.98L1573.45 1539.17L1564.05 1548.91L1554.65 1558.65L1545.25 1568.4L1535.73 1559.22L1545.13 1549.47L1537.99 1542.59L1528.59 1552.33L1519.08 1543.15L1528.48 1533.4L1521.34 1526.52ZM1604.18 1535.89L1613.58 1526.14L1623.09 1535.32L1627.79 1530.45L1618.28 1521.27L1627.68 1511.53L1637.2 1520.71L1644.25 1513.4L1653.76 1522.58L1646.71 1529.89L1656.23 1539.07L1646.83 1548.82L1637.31 1539.63L1632.61 1544.51L1642.13 1553.69L1632.73 1563.43L1623.21 1554.25L1616.16 1561.56L1625.68 1570.74L1616.28 1580.48L1606.76 1571.3L1597.24 1562.12L1587.73 1552.94L1597.13 1543.19L1606.64 1552.38L1613.69 1545.07L1604.18 1535.89ZM1559.52 1582.17L1550.01 1572.99L1578.21 1543.76L1587.73 1552.94L1559.52 1582.17ZM1588.08 1609.72L1578.68 1619.46L1569.16 1610.28L1562.11 1617.59L1571.63 1626.77L1562.23 1636.51L1552.71 1627.33L1548.01 1632.2L1557.53 1641.38L1548.13 1651.13L1538.61 1641.95L1531.56 1649.25L1522.04 1640.07L1529.09 1632.76L1519.57 1623.58L1528.97 1613.84L1538.49 1623.02L1543.19 1618.15L1533.67 1608.97L1543.07 1599.22L1552.59 1608.4L1559.64 1601.1L1550.12 1591.91L1559.52 1582.17L1569.04 1591.35L1578.56 1600.53L1588.08 1609.72ZM1588.08 1609.72L1597.59 1618.9L1625.8 1589.67L1616.28 1580.48L1588.08 1609.72ZM1654.46 1636.14L1645.06 1645.88L1637.93 1638.99L1628.53 1648.74L1619.01 1639.56L1628.41 1629.81L1621.27 1622.93L1611.87 1632.67L1602.35 1623.49L1611.75 1613.74L1621.15 1604L1630.55 1594.26L1640.07 1603.44L1630.67 1613.18L1637.81 1620.07L1647.21 1610.33L1656.73 1619.51L1647.33 1629.25L1654.46 1636.14ZM1587.96 1590.79L1597.36 1581.05L1587.84 1571.86L1578.44 1581.61L1587.96 1590.79ZM1710.87 1577.67L1701.47 1587.42L1694.33 1580.53L1670.83 1604.89L1661.31 1595.71L1677.76 1578.66L1661.11 1562.59L1670.51 1552.84L1694.3 1575.8L1701.35 1568.49L1710.87 1577.67ZM1598.06 1694.6L1588.66 1704.35L1579.14 1695.16L1586.19 1687.86L1562.4 1664.9L1571.8 1655.16L1588.46 1671.23L1604.91 1654.17L1614.43 1663.35L1590.92 1687.71L1598.06 1694.6ZM1587.14 1458.31L1577.74 1468.05L1584.88 1474.94L1561.38 1499.3L1570.9 1508.48L1587.35 1491.43L1604 1507.5L1613.4 1497.75L1589.61 1474.8L1596.66 1467.49L1587.14 1458.31ZM1474.34 1575.24L1464.94 1584.98L1474.45 1594.16L1481.5 1586.86L1505.3 1609.81L1514.7 1600.07L1498.04 1584L1514.49 1566.95L1504.98 1557.76L1481.47 1582.12L1474.34 1575.24Z" fill="black"/>
<path fill-rule="evenodd" clip-rule="evenodd" d="M1311.59 1466L1321.57 1455.66L1303.9 1438.6L1321.35 1420.51L1303.68 1403.46L1321.14 1385.36L1311.04 1375.62L1293.58 1393.71L1275.9 1376.66L1258.45 1394.76L1303.9 1438.6L1293.92 1448.94L1248.47 1405.1L1231.01 1423.19L1248.69 1440.24L1231.23 1458.34L1241.33 1468.08L1258.79 1449.99L1276.46 1467.04L1293.92 1448.94L1311.59 1466ZM1245.94 1402.66L1255.92 1392.32L1240.77 1377.7L1230.79 1388.04L1245.94 1402.66ZM1349 1427.22L1339.03 1437.56L1328.93 1427.82L1338.9 1417.48L1349 1427.22ZM1278.3 1359.01L1268.33 1369.35L1258.23 1359.61L1268.2 1349.27L1278.3 1359.01ZM1284.16 1494.43L1294.14 1484.09L1284.04 1474.35L1274.06 1484.69L1284.16 1494.43ZM1213.46 1426.23L1223.44 1415.88L1213.34 1406.14L1203.36 1416.48L1213.46 1426.23Z" fill="black"/>
<path fill-rule="evenodd" clip-rule="evenodd" d="M1552.09 1188.41L1554.46 1179.73L1545.89 1171.47L1537.3 1174.14L1539.67 1165.46L1531.1 1157.2L1522.51 1159.88L1524.88 1151.19L1516.31 1142.93L1507.72 1145.61L1505.36 1154.29L1513.92 1162.55L1522.51 1159.88L1520.15 1168.56L1528.71 1176.82L1537.3 1174.14L1534.94 1182.83L1543.5 1191.09L1552.09 1188.41ZM1455.19 1174.17L1463.81 1176.33L1466.28 1184.87L1457.82 1193.63L1449.2 1191.47L1446.73 1182.93L1455.19 1174.17ZM1478.42 1161.19L1469.8 1159.02L1461.34 1167.79L1463.81 1176.33L1472.43 1178.49L1480.89 1169.72L1478.42 1161.19ZM1487.04 1163.35L1478.42 1161.19L1475.95 1152.65L1484.4 1143.88L1493.02 1146.04L1495.5 1154.58L1487.04 1163.35ZM1522.24 1115.76L1513.62 1113.6L1505.16 1122.36L1507.63 1130.9L1516.25 1133.07L1524.71 1124.3L1522.24 1115.76ZM1536.85 1100.62L1545.47 1102.78L1553.93 1094.02L1551.46 1085.48L1542.83 1083.32L1534.38 1092.08L1536.85 1100.62ZM1536.85 1100.62L1539.32 1109.16L1530.86 1117.92L1522.24 1115.76L1519.77 1107.22L1528.23 1098.46L1536.85 1100.62ZM1465.72 1094.12L1463.36 1102.8L1454.76 1105.48L1446.2 1097.22L1448.57 1088.54L1457.16 1085.86L1465.72 1094.12ZM1478.14 1117.07L1480.51 1108.39L1471.95 1100.13L1463.36 1102.8L1460.99 1111.49L1469.55 1119.75L1478.14 1117.07ZM1475.78 1125.75L1478.14 1117.07L1486.74 1114.4L1495.3 1122.66L1492.93 1131.34L1484.34 1134.01L1475.78 1125.75ZM1496.63 1134.91C1494.61 1137 1494.63 1140.29 1496.68 1142.26C1498.72 1144.23 1502.01 1144.13 1504.03 1142.04C1506.04 1139.95 1506.02 1136.66 1503.98 1134.69C1501.94 1132.72 1498.65 1132.82 1496.63 1134.91ZM1572.43 1136.61L1572.45 1139.73L1566.21 1139.91L1566.25 1146.15L1563.14 1146.25L1563.1 1140.01L1556.86 1140.19L1556.84 1137.07L1563.08 1136.89L1563.04 1130.65L1566.16 1130.56L1566.2 1136.79L1572.43 1136.61ZM1512.17 1199.07L1512.19 1202.19L1505.96 1202.37L1506 1208.61L1502.88 1208.7L1502.84 1202.47L1496.6 1202.65L1496.58 1199.53L1502.82 1199.35L1502.78 1193.11L1505.9 1193.02L1505.94 1199.25L1512.17 1199.07ZM1447.47 1136.65L1447.49 1139.77L1441.25 1139.95L1441.29 1146.19L1438.17 1146.28L1438.14 1140.04L1431.9 1140.23L1431.88 1137.11L1438.12 1136.92L1438.08 1130.69L1441.2 1130.59L1441.24 1136.83L1447.47 1136.65ZM1507.73 1074.19L1507.75 1077.31L1501.51 1077.49L1501.55 1083.73L1498.43 1083.82L1498.39 1077.58L1492.16 1077.77L1492.14 1074.65L1498.37 1074.47L1498.34 1068.23L1501.45 1068.13L1501.49 1074.37L1507.73 1074.19Z" fill="black"/>
<rect x="1514.71" y="1354.5" width="17.2419" height="16.8409" transform="rotate(133.972 1514.71 1354.5)" fill="black"/>
<rect x="1496.5" y="1737.22" width="11.4946" height="11.2273" transform="rotate(133.972 1496.5 1737.22)" fill="black"/>
<rect x="1102.09" y="1356.72" width="17.2419" height="16.8409" transform="rotate(133.972 1102.09 1356.72)" fill="black"/>
<rect x="1285.15" y="1166.97" width="11.4946" height="11.2273" transform="rotate(133.972 1285.15 1166.97)" fill="black"/>
<path fill-rule="evenodd" clip-rule="evenodd" d="M464.212 952.008L472.465 932.431L439.001 918.324L453.444 884.063L419.98 869.957L434.423 835.696L415.301 827.635L400.858 861.896L367.394 847.789L352.952 882.05L439.001 918.324L430.748 937.901L344.699 901.627L330.256 935.888L363.72 949.994L349.277 984.255L368.399 992.316L382.842 958.055L416.306 972.162L430.748 937.901L464.212 952.008ZM339.918 899.612L348.171 880.034L319.488 867.943L311.235 887.52L339.918 899.612ZM495.161 878.593L486.908 898.17L467.786 890.109L476.039 870.532L495.161 878.593ZM361.306 822.166L353.053 841.743L333.931 833.682L342.184 814.105L361.306 822.166ZM441.517 1005.85L449.77 986.269L430.647 978.208L422.394 997.785L441.517 1005.85ZM307.662 949.419L315.915 929.842L296.793 921.781L288.54 941.358L307.662 949.419Z" fill="black"/>
<path fill-rule="evenodd" clip-rule="evenodd" d="M648.097 441.008L646.734 427.772L630.524 420.939L620.097 429.204L618.734 415.969L602.523 409.135L592.097 417.4L590.734 404.165L574.523 397.332L564.097 405.597L565.46 418.832L581.67 425.666L592.097 417.4L593.46 430.636L609.671 437.469L620.097 429.204L621.46 442.439L637.671 449.273L648.097 441.008ZM506.841 472.972L519.885 471.363L527.841 481.824L520.844 498.421L507.8 500.03L499.844 489.568L506.841 472.972ZM531.97 442.696L518.925 444.304L511.929 460.901L519.885 471.363L532.929 469.754L539.925 453.157L531.97 442.696ZM545.014 441.087L531.97 442.696L524.014 432.234L531.01 415.637L544.054 414.029L552.01 424.49L545.014 441.087ZM568.223 356.695L555.179 358.303L548.183 374.9L556.139 385.362L569.183 383.753L576.179 367.156L568.223 356.695ZM580.308 328.028L593.352 326.419L600.349 309.822L592.393 299.36L579.349 300.969L572.352 317.566L580.308 328.028ZM580.308 328.028L588.264 338.489L581.268 355.086L568.223 356.695L560.268 346.233L567.264 329.636L580.308 328.028ZM478.733 356.951L480.096 370.186L469.669 378.451L453.459 371.618L452.096 358.383L462.522 350.117L478.733 356.951ZM508.096 381.99L506.733 368.755L490.522 361.921L480.096 370.186L481.459 383.421L497.67 390.255L508.096 381.99ZM509.459 395.225L508.096 381.99L518.523 373.725L534.733 380.558L536.096 393.793L525.67 402.058L509.459 395.225ZM543.096 396.744C541.428 400.702 543.209 405.232 547.075 406.862C550.941 408.492 555.428 406.604 557.097 402.646C558.765 398.688 556.984 394.158 553.118 392.528C549.252 390.899 544.765 392.786 543.096 396.744ZM648.562 358.718L650.25 363.01L641.747 366.588L645.123 375.173L640.871 376.961L637.495 368.376L628.992 371.954L627.304 367.661L635.807 364.084L632.431 355.499L636.683 353.71L640.059 362.295L648.562 358.718ZM598.713 476.969L600.401 481.262L591.898 484.839L595.274 493.424L591.022 495.213L587.646 486.628L579.143 490.205L577.455 485.913L585.958 482.335L582.582 473.75L586.833 471.961L590.21 480.547L598.713 476.969ZM476.212 425.329L477.9 429.621L469.397 433.199L472.773 441.784L468.521 443.572L465.145 434.987L456.642 438.564L454.954 434.272L463.457 430.695L460.081 422.109L464.332 420.321L467.708 428.906L476.212 425.329ZM526.061 307.077L527.749 311.37L519.246 314.947L522.622 323.532L518.37 325.321L514.994 316.736L506.491 320.313L504.803 316.02L513.306 312.443L509.93 303.858L514.181 302.069L517.558 310.654L526.061 307.077Z" fill="black"/>
<rect x="685.006" y="690.014" width="25.4951" height="24.9021" transform="rotate(112.858 685.006 690.014)" fill="black"/>
<rect x="863.733" y="1227.64" width="16.9967" height="16.6014" transform="rotate(112.858 863.733 1227.64)" fill="black"/>
<rect x="117.014" y="912.859" width="25.4951" height="24.9021" transform="rotate(112.858 117.014 912.859)" fill="black"/>
<rect x="268.455" y="553.612" width="16.9967" height="16.6014" transform="rotate(112.858 268.455 553.612)" fill="black"/>
<path fill-rule="evenodd" clip-rule="evenodd" d="M770.265 1478.85L774.976 1466.16L784.274 1469.61L788.985 1456.92L801.383 1461.52L796.672 1474.21L805.971 1477.66L810.682 1464.97L823.08 1469.57L818.369 1482.27L813.658 1494.96L808.947 1507.65L796.549 1503.05L801.26 1490.36L791.962 1486.91L787.251 1499.6L774.853 1495L779.563 1482.3L770.265 1478.85ZM849.921 1454.26L854.632 1441.57L867.03 1446.17L869.386 1439.82L856.988 1435.22L861.699 1422.53L874.097 1427.13L877.63 1417.61L890.028 1422.21L886.495 1431.73L898.893 1436.33L894.182 1449.02L881.784 1444.42L879.429 1450.77L891.827 1455.37L887.116 1468.06L874.718 1463.46L871.184 1472.98L883.583 1477.58L878.872 1490.28L866.473 1485.68L854.075 1481.08L841.677 1476.47L846.388 1463.78L858.786 1468.38L862.32 1458.86L849.921 1454.26ZM827.544 1514.55L815.146 1509.95L829.279 1471.87L841.677 1476.47L827.544 1514.55ZM864.739 1528.36L860.028 1541.05L847.63 1536.45L844.097 1545.97L856.495 1550.57L851.784 1563.26L839.386 1558.66L837.03 1565.01L849.428 1569.61L844.717 1582.3L832.319 1577.7L828.786 1587.22L816.388 1582.62L819.921 1573.1L807.523 1568.5L812.234 1555.81L824.632 1560.41L826.988 1554.06L814.589 1549.46L819.3 1536.77L831.698 1541.37L835.232 1531.85L822.834 1527.25L827.544 1514.55L839.943 1519.16L852.341 1523.76L864.739 1528.36ZM864.739 1528.36L877.137 1532.96L891.27 1494.88L878.872 1490.28L864.739 1528.36ZM936.151 1525.98L931.44 1538.67L922.142 1535.22L917.431 1547.91L905.033 1543.31L909.744 1530.62L900.445 1527.17L895.734 1539.86L883.336 1535.26L888.047 1522.57L892.758 1509.87L897.469 1497.18L909.867 1501.78L905.156 1514.47L914.455 1517.93L919.165 1505.23L931.564 1509.83L926.853 1522.53L936.151 1525.98ZM857.052 1511.06L861.763 1498.37L849.364 1493.77L844.654 1506.46L857.052 1511.06ZM964.417 1449.82L959.706 1462.51L950.407 1459.06L938.63 1490.79L926.232 1486.19L934.476 1463.98L912.779 1455.93L917.49 1443.23L948.486 1454.74L952.019 1445.22L964.417 1449.82ZM907.886 1602.14L903.175 1614.83L890.777 1610.23L894.31 1600.71L863.315 1589.21L868.025 1576.51L889.722 1584.57L897.966 1562.35L910.364 1566.95L898.587 1598.69L907.886 1602.14ZM803.241 1390L798.53 1402.69L807.829 1406.14L796.052 1437.88L808.45 1442.48L816.694 1420.27L838.391 1428.32L843.102 1415.63L812.106 1404.12L815.639 1394.6L803.241 1390ZM746.71 1542.32L741.999 1555.01L754.397 1559.62L757.931 1550.1L788.926 1561.6L793.637 1548.91L771.94 1540.85L780.184 1518.64L767.786 1514.04L756.009 1545.77L746.71 1542.32Z" fill="black"/>
<path fill-rule="evenodd" clip-rule="evenodd" d="M444.685 1402.79L450.521 1387.06L427.496 1378.52L437.71 1351L414.685 1342.45L424.899 1314.93L411.742 1310.05L401.528 1337.57L378.503 1329.02L368.289 1356.54L427.496 1378.52L421.66 1394.24L362.452 1372.27L352.239 1399.79L375.264 1408.33L365.05 1435.86L378.207 1440.74L388.421 1413.22L411.446 1421.76L421.66 1394.24L444.685 1402.79ZM359.163 1371.05L365 1355.32L345.264 1348L339.427 1363.72L359.163 1371.05ZM466.572 1343.81L460.735 1359.54L447.578 1354.66L453.415 1338.93L466.572 1343.81ZM374.471 1309.63L368.635 1325.36L355.478 1320.48L361.314 1304.75L374.471 1309.63ZM428.634 1446.03L434.471 1430.31L421.314 1425.43L415.477 1441.15L428.634 1446.03ZM336.534 1411.85L342.371 1396.13L329.213 1391.24L323.377 1406.97L336.534 1411.85Z" fill="black"/>
<path fill-rule="evenodd" clip-rule="evenodd" d="M496.483 1734.09L495.172 1725.19L484.018 1721.05L477.217 1726.94L475.906 1718.04L464.752 1713.9L457.951 1719.79L456.64 1710.89L445.486 1706.75L438.685 1712.64L439.996 1721.54L451.15 1725.68L457.951 1719.79L459.262 1728.69L470.416 1732.83L477.217 1726.94L478.528 1735.84L489.682 1739.98L496.483 1734.09ZM401.985 1759.84L410.751 1758.37L416.435 1765.21L412.196 1776.63L403.431 1778.1L397.747 1771.26L401.985 1759.84ZM418.072 1738.65L409.306 1740.12L405.068 1751.54L410.751 1758.37L419.517 1756.9L423.755 1745.48L418.072 1738.65ZM426.837 1737.18L418.072 1738.65L412.388 1731.82L416.626 1720.4L425.392 1718.92L431.076 1725.76L426.837 1737.18ZM440.033 1679.48L431.267 1680.95L427.029 1692.37L432.712 1699.2L441.478 1697.73L445.717 1686.31L440.033 1679.48ZM447.353 1659.75L456.119 1658.28L460.357 1646.86L454.674 1640.03L445.908 1641.5L441.67 1652.92L447.353 1659.75ZM447.353 1659.75L453.037 1666.58L448.799 1678L440.033 1679.48L434.349 1672.64L438.588 1661.22L447.353 1659.75ZM379.577 1682.28L380.888 1691.19L374.086 1697.08L362.932 1692.94L361.622 1684.04L368.423 1678.14L379.577 1682.28ZM400.153 1698.34L398.843 1689.43L387.689 1685.3L380.888 1691.19L382.198 1700.09L393.352 1704.23L400.153 1698.34ZM401.464 1707.24L400.153 1698.34L406.955 1692.45L418.109 1696.58L419.419 1705.49L412.618 1711.38L401.464 1707.24ZM424.236 1707.27C423.225 1710 424.562 1713.01 427.222 1713.99C429.882 1714.98 432.858 1713.57 433.869 1710.85C434.879 1708.13 433.542 1705.12 430.882 1704.13C428.222 1703.14 425.247 1704.55 424.236 1707.27ZM494.373 1678.48L495.64 1681.33L490 1683.99L492.534 1689.69L489.714 1691.03L487.18 1685.33L481.54 1687.99L480.273 1685.14L485.913 1682.48L483.379 1676.78L486.199 1675.44L488.733 1681.14L494.373 1678.48ZM464.176 1759.84L465.443 1762.69L459.803 1765.36L462.337 1771.06L459.517 1772.39L456.983 1766.69L451.343 1769.36L450.076 1766.51L455.716 1763.84L453.182 1758.14L456.002 1756.81L458.536 1762.51L464.176 1759.84ZM379.888 1728.56L381.155 1731.41L375.515 1734.08L378.049 1739.78L375.229 1741.11L372.695 1735.41L367.055 1738.08L365.788 1735.23L371.428 1732.56L368.894 1726.86L371.714 1725.52L374.248 1731.23L379.888 1728.56ZM410.085 1647.19L411.352 1650.04L405.712 1652.71L408.246 1658.41L405.426 1659.75L402.892 1654.05L397.252 1656.71L395.985 1653.86L401.625 1651.19L399.091 1645.49L401.911 1644.16L404.445 1649.86L410.085 1647.19Z" fill="black"/>
<rect x="500.024" y="1178.84" width="17.2419" height="16.8409" transform="rotate(110.362 500.024 1178.84)" fill="black"/>
<rect x="636.616" y="1536.82" width="11.4946" height="11.2273" transform="rotate(110.362 636.616 1536.82)" fill="black"/>
<rect x="122.828" y="1346.14" width="17.2419" height="16.8409" transform="rotate(110.362 122.828 1346.14)" fill="black"/>
<rect x="214.567" y="1098.95" width="11.4946" height="11.2273" transform="rotate(110.362 214.567 1098.95)" fill="black"/>
<path fill-rule="evenodd" clip-rule="evenodd" d="M991.067 549.584L1007.08 563.549L1030.95 536.182L1058.97 560.621L1082.84 533.254L1110.86 557.693L1124.5 542.055L1096.48 517.615L1120.35 490.247L1092.33 465.808L1030.95 536.182L1014.94 522.216L1076.32 451.842L1048.3 427.403L1024.43 454.77L996.412 430.33L982.771 445.969L1010.79 470.409L986.919 497.776L1014.94 522.216L991.067 549.584ZM1079.73 447.933L1095.74 461.898L1116.2 438.44L1100.19 424.475L1079.73 447.933ZM1051.11 601.954L1035.1 587.989L1048.74 572.35L1064.75 586.316L1051.11 601.954ZM1146.59 492.484L1130.58 478.519L1144.22 462.88L1160.23 476.845L1146.59 492.484ZM947.037 511.178L963.048 525.144L976.688 509.505L960.677 495.54L947.037 511.178ZM1042.52 401.708L1058.53 415.674L1072.17 400.035L1056.16 386.069L1042.52 401.708Z" fill="black"/>
<path fill-rule="evenodd" clip-rule="evenodd" d="M1418.84 884.16L1431.84 887.008L1443.41 873.75L1438.82 861.261L1451.82 864.108L1463.38 850.851L1458.79 838.361L1471.79 841.209L1483.35 827.951L1478.77 815.462L1465.77 812.614L1454.21 825.872L1458.79 838.361L1445.8 835.514L1434.23 848.771L1438.82 861.261L1425.82 858.413L1414.26 871.671L1418.84 884.16ZM1432.7 739.996L1430.14 752.888L1417.72 757.171L1404.14 745.331L1406.7 732.439L1419.12 728.157L1432.7 739.996ZM1453.59 773.338L1456.14 760.446L1442.57 748.606L1430.14 752.888L1427.59 765.781L1441.16 777.62L1453.59 773.338ZM1451.03 786.23L1453.59 773.338L1466.01 769.056L1479.59 780.895L1477.03 793.787L1464.61 798.07L1451.03 786.23ZM1523.92 834.687L1526.48 821.794L1512.9 809.955L1500.48 814.237L1497.92 827.129L1511.49 838.969L1523.92 834.687ZM1547.37 855.136L1544.81 868.029L1558.38 879.868L1570.81 875.586L1573.36 862.693L1559.79 850.854L1547.37 855.136ZM1547.37 855.136L1534.94 859.418L1521.37 847.579L1523.92 834.687L1536.35 830.404L1549.92 842.244L1547.37 855.136ZM1551.69 749.611L1538.69 746.764L1534.1 734.274L1545.67 721.017L1558.66 723.864L1563.25 736.354L1551.69 749.611ZM1518.71 769.663L1531.71 772.511L1543.28 759.253L1538.69 746.764L1525.69 743.916L1514.13 757.174L1518.71 769.663ZM1505.72 766.816L1518.71 769.663L1523.3 782.153L1511.74 795.41L1498.74 792.563L1494.15 780.073L1505.72 766.816ZM1493.75 798.287C1490.51 795.464 1485.65 795.738 1482.89 798.9C1480.13 802.062 1480.52 806.914 1483.76 809.737C1487 812.561 1491.86 812.286 1494.61 809.125C1497.37 805.963 1496.98 801.111 1493.75 798.287ZM1496.86 910.356L1492.25 910.616L1491.51 901.42L1482.3 901.94L1481.94 897.342L1491.15 896.822L1490.41 887.626L1495.01 887.367L1495.75 896.562L1504.96 896.043L1505.33 900.64L1496.12 901.16L1496.86 910.356ZM1400.15 826.001L1395.54 826.261L1394.8 817.066L1385.59 817.585L1385.23 812.987L1394.44 812.468L1393.7 803.272L1398.31 803.012L1399.04 812.208L1408.25 811.688L1408.62 816.286L1399.41 816.806L1400.15 826.001ZM1487.53 725.817L1482.93 726.077L1482.19 716.881L1472.98 717.401L1472.61 712.803L1481.82 712.283L1481.09 703.087L1485.69 702.827L1486.43 712.023L1495.64 711.503L1496.01 716.101L1486.8 716.621L1487.53 725.817ZM1584.24 810.171L1579.64 810.431L1578.9 801.235L1569.69 801.755L1569.32 797.157L1578.53 796.637L1577.8 787.442L1582.4 787.182L1583.14 796.378L1592.35 795.858L1592.72 800.456L1583.5 800.975L1584.24 810.171Z" fill="black"/>
<rect x="1170.8" y="841.282" width="25.4951" height="24.9021" transform="rotate(-138.904 1170.8 841.282)" fill="black"/>
<rect x="604.244" y="842.768" width="16.9967" height="16.6014" transform="rotate(-138.904 604.244 842.768)" fill="black"/>
<rect x="1136.91" y="232.081" width="25.4951" height="24.9021" transform="rotate(-138.904 1136.91 232.081)" fill="black"/>
<rect x="1430.72" y="488.348" width="16.9967" height="16.6014" transform="rotate(-138.904 1430.72 488.348)" fill="black"/>
</svg>
