<?xml version="1.0" encoding="utf-8"?>
<!DOCTYPE svg PUBLIC "-//W3C//DTD SVG 1.0//EN" "http://www.w3.org/TR/2001/REC-SVG-20010904/DTD/svg10.dtd">
<svg version="1.0" xmlns="http://www.w3.org/2000/svg" width="57px" height="227px" viewBox="0 0 57 227" preserveAspectRatio="xMidYMid meet">
 <g fill="#f0ede0">
  <path d="M23.1 225.9 c-8.8 -1.7 -16.3 -7.9 -20.5 -16.9 -2.1 -4.5 -2.1 -5.3 -2.1 -95.5 l0 -91 2.8 -5.7 c10.6 -21.5 39.8 -21.5 50.4 0 l2.8 5.7 0 91 c0 90.4 0 91 -2.1 95.6 -5.8 12.4 -18.5 19.3 -31.3 16.8z"/>
 </g>
 <g fill="#676664">
  <path d="M21.5 213.2 c-5.4 -1.8 -7.5 -5 -7.5 -11.2 0 -5.2 1.3 -7.6 5 -9.5 3.6 -1.9 4 -1.9 4 0 0 0.8 -1 2 -2.2 2.6 -1.3 0.7 -2.6 1.7 -3 2.3 -1.5 2.1 -0.8 8.4 1.1 10.7 1.6 2 2.7 2.3 8.9 2.3 8.9 0 11.2 -1.6 11.2 -8 0 -3.3 -0.5 -4.7 -2.5 -6.2 -1.4 -1.1 -2.5 -2.7 -2.5 -3.6 0 -1.4 0.4 -1.5 2.3 -0.5 3.8 2 5.7 5.1 5.7 9.9 0 5.4 -2 8.7 -6.6 10.6 -3.4 1.4 -10.3 1.7 -13.9 0.6z"/>
  <path d="M22.1 188 c-5.2 -1.2 -7.4 -4.1 -7.9 -10.3 -0.4 -4.9 -0.1 -5.7 2.4 -8.6 2.4 -2.7 3.8 -3.3 8.5 -3.8 10.9 -1.1 16.9 3.1 16.9 11.8 0 9.2 -8.1 13.7 -19.9 10.9z m14.9 -5.2 c2.2 -2.4 2.7 -7.7 1 -10.8 -2.6 -4.8 -16.6 -5.1 -19.6 -0.4 -2.1 3.1 -1.3 10.3 1.2 12.1 1 0.8 4.6 1.3 8.6 1.3 5.6 0 7.1 -0.4 8.8 -2.2z"/>
  <path d="M14 160.3 c0 -1.2 4.1 -4.5 11.8 -9.5 l11.7 -7.8 -11.7 0 c-9.6 0 -11.8 -0.3 -11.8 -1.4 0 -1.2 2.6 -1.6 14 -1.8 14 -0.3 14 -0.3 14 2 0 1.8 -2.3 3.8 -11 9.5 -10.4 6.8 -10.9 7.2 -7.9 7.5 2.9 0.3 3 0.4 1.2 1.7 -2.2 1.7 -5 1.9 -5.5 0.4 -0.3 -0.9 -1 -0.9 -2.6 0 -1.9 1 -2.2 0.9 -2.2 -0.6z"/>
  <path d="M14 127 c0 -8.2 0.3 -10 1.5 -10 1.1 0 1.5 1.1 1.5 4 0 2.9 0.4 4 1.5 4 0.8 0 1.5 0.4 1.5 1 0 0.5 -0.7 0.7 -1.5 0.4 -1.2 -0.5 -1.5 0.4 -1.5 5 0 4.3 -0.3 5.6 -1.5 5.6 -1.2 0 -1.5 -1.8 -1.5 -10z"/>
  <path d="M16 83 c-2.9 -2.9 -2.9 -14.1 0 -17 2.3 -2.3 6 -2.7 6 -0.7 0 0.8 -1.1 1.9 -2.5 2.5 -2.2 1 -2.5 1.8 -2.5 6.1 0 5 2 8.6 4.4 7.8 0.6 -0.1 2.9 -3.8 5.2 -8.1 4.3 -8.3 5.6 -9.6 9.1 -9.6 4.3 0 6.3 3.3 6.3 10.3 0 6.7 -1.1 9.1 -4.7 10.2 -3 0.8 -3.2 -2 -0.3 -3.5 2.9 -1.6 2.9 -11.4 0 -13 -1.1 -0.6 -2.5 -0.8 -3 -0.5 -0.6 0.4 -2.8 4.2 -5 8.4 -2.1 4.3 -4.6 8.1 -5.5 8.5 -3 1.1 -5.5 0.6 -7.5 -1.4z"/>
  <path d="M14 52 c0 -8.2 0.3 -10 1.5 -10 1.2 0 1.5 1.8 1.5 10 0 8.2 -0.3 10 -1.5 10 -1.2 0 -1.5 -1.8 -1.5 -10z"/>
  <path d="M14 31.1 c0 -9.6 1.7 -12.5 7.3 -12.5 4.6 0 7.5 2.6 7.9 7.1 l0.3 3.4 5.7 -5 c3.1 -2.8 5.9 -5.1 6.2 -5.1 0.3 0 0.6 0.8 0.6 1.8 0 2.1 -11.7 12.2 -14.2 12.2 -1.3 0 -1.8 -1.1 -2 -5.2 -0.3 -5 -0.4 -5.3 -3.3 -5.6 -3.9 -0.5 -5.5 1.9 -5.5 8.5 l0 5.3 12.5 0 c10.4 0 12.5 0.2 12.5 1.5 0 1.3 -2.2 1.5 -14 1.5 l-14 0 0 -7.9z"/>
 </g>
 <g fill="#dd9fa8">
  <path d="M19 160.5 c0 -1.2 1.9 -1.5 11.5 -1.5 9.6 0 11.5 0.3 11.5 1.5 0 1.2 -1.9 1.5 -11.5 1.5 -9.6 0 -11.5 -0.3 -11.5 -1.5z"/>
  <path d="M18.8 126.9 c-1.8 -1.9 -1.6 -1.9 10.7 -1.9 11.8 0 12.5 0.1 12.5 2 0 1.9 -0.6 2 -10.7 1.9 -9.3 -0.1 -11 -0.3 -12.5 -2z"/>
  <path d="M22.8 111.4 c0.5 -3.8 -1.9 -8.4 -4.3 -8.4 -0.8 0 -1.5 0.5 -1.5 1 0 0.6 0.7 1 1.6 1 1.4 0 1.4 0.3 0.4 1.6 -1.2 1.3 -1.5 1.3 -2.8 0.1 -1.1 -1.2 -1.1 -1.9 -0.3 -3.6 1.5 -2.7 5.7 -2.8 7.1 -0.2 1.2 2.3 1.4 10.8 0.2 11.5 -0.4 0.2 -0.6 -1.1 -0.4 -3z"/>
  <path d="M27.9 106.2 c-0.3 -6.7 -0.8 -8.5 -3.3 -12 -2 -2.9 -3.6 -4.2 -5.2 -4.2 -3.3 0 -4 1.9 -1.5 4.4 1.9 1.8 2.3 1.9 3.1 0.6 0.5 -0.8 1 -1 1 -0.4 0 2.3 -2.7 3.6 -4.9 2.4 -4.1 -2.2 -1.6 -9 3.3 -9 2.3 0 5.5 2.8 7.4 6.5 1.5 3 2.7 18.1 1.4 18.9 -0.6 0.4 -1.1 -2.3 -1.3 -7.2z"/>
  <path d="M32.2 109.8 c-0.1 -2.4 -0.5 -6.4 -0.8 -9 -1.2 -9.8 3.6 -15.8 8.3 -10.4 2.7 3.1 2.9 5.8 0.8 7.6 -1.9 1.6 -4.5 0.6 -4.5 -1.7 0 -1.3 0.3 -1.4 1.2 -0.5 1.7 1.7 2.8 1.5 2.8 -0.6 0 -2.6 -3.5 -5.6 -5.6 -4.8 -1.4 0.6 -1.6 1.9 -0.9 12.1 0.4 6.7 0.3 11.5 -0.2 11.5 -0.5 0 -1 -1.9 -1.1 -4.2z"/>
  <path d="M19 51.5 c-1.1 -1.3 0.2 -1.5 10.9 -1.5 10.1 0 12.1 0.2 12.1 1.5 0 1.2 -1.9 1.5 -10.9 1.5 -8.4 0 -11.1 -0.3 -12.1 -1.5z"/>
 </g>
</svg>